<svg xmlns="http://www.w3.org/2000/svg" version="1.1" xmlns:xlink="http://www.w3.org/1999/xlink" xmlns:svgjs="http://svgjs.dev/svgjs" width="2000" height="1252" viewBox="0 0 2000 1252">
    <g transform="matrix(1,0,0,1,-1.2121212121212466,-2.01935483870966)">
        <svg viewBox="0 0 396 248" data-background-color="#f9f7f4" preserveAspectRatio="xMidYMid meet" height="1252" width="2000" xmlns="http://www.w3.org/2000/svg" xmlns:xlink="http://www.w3.org/1999/xlink">
            <g id="tight-bounds" transform="matrix(1,0,0,1,0.2400000000000091,0.4000000000000057)">
                <svg viewBox="0 0 395.52 247.2" height="247.2" width="395.52">
                    <g>
                        <svg></svg>
                    </g>
                    <g>
                        <svg viewBox="0 0 395.52 247.2" height="247.2" width="395.52">
                            <mask id="dbd2d156-2174-44fb-ba5a-6351023afdc0">
                                <rect width="640" height="400" fill="white">
                                </rect>
                                <g transform="matrix(1,0,0,1,121.59188916876575,37.08)">
                                    <svg viewBox="0 0 152.3362216624685 173.04" height="173.04" width="152.3362216624685">
                                        <g>
                                            <svg viewBox="0 0 152.3362216624685 173.04" height="173.04" width="152.3362216624685">
                                                <g>
                                                    <svg viewBox="0 0 152.3362216624685 173.04" height="173.04" width="152.3362216624685">
                                                        <g>
                                                            <svg viewBox="0 0 152.3362216624685 173.04" height="173.04" width="152.3362216624685">
                                                                <g id="SvgjsG2864">
                                                                    <svg viewBox="0 0 152.3362216624685 173.04" height="173.04" width="152.3362216624685" id="SvgjsSvg2863">
                                                                        <g>
                                                                            <svg viewBox="0 0 152.3362216624685 173.04" height="173.04" width="152.3362216624685">
                                                                                <g transform="matrix(1,0,0,1,0,0)">
                                                                                    <svg width="152.3362216624685" viewBox="-1.7000000000000002 -36.2 35.95 40.7" height="173.04" data-palette-color="#ff5a00">
                                                                                        <path d="M4.95 0.5L4.95 0.5Q3.85 0.5 3.08-0.08 2.3-0.65 2.3-2.8L2.3-2.8Q2.3-3.9 2.53-5.48 2.75-7.05 3-8.75L3-8.75Q3.4-11.15 3.8-14.03 4.2-16.9 4.2-19.75L4.2-19.75Q4.2-22.75 4-24.35 3.8-25.95 3.55-26.95L3.55-26.95Q3.45-27.5 3.38-27.95 3.3-28.4 3.3-28.95L3.3-28.95Q3.3-30.55 4.33-31.38 5.35-32.2 6.6-32.2L6.6-32.2Q7.85-32.2 8.7-31.58 9.55-30.95 10.2-30.25L10.2-30.25Q14.5-25.4 17.95-20.08 21.4-14.75 23.7-9.15L23.7-9.15Q23.95-8.75 24.15-8.75L24.15-8.75Q24.45-8.75 24.55-9.15L24.55-9.15Q25.45-15 25.45-19.75L25.45-19.75Q25.45-22.6 25.23-24.28 25-25.95 24.68-26.88 24.35-27.8 24.05-28.35L24.05-28.35Q23.9-28.7 23.8-28.98 23.7-29.25 23.7-29.5L23.7-29.5Q23.7-30.1 24.33-30.73 24.95-31.35 25.85-31.75 26.75-32.15 27.6-32.15L27.6-32.15Q28.8-32.15 29.35-31.35 29.9-30.55 30.08-29.38 30.25-28.2 30.25-27L30.25-27Q30.25-25.65 30-23.5 29.75-21.35 29.43-18.88 29.1-16.4 28.88-14 28.65-11.6 28.65-9.75L28.65-9.75Q28.65-8.7 28.73-7.7 28.8-6.7 28.9-5.75L28.9-5.75Q29.05-4.5 29.05-3.55L29.05-3.55Q29.05-1.7 28.13-0.63 27.2 0.45 25.6 0.45L25.6 0.45Q24.5 0.45 23.43-0.2 22.35-0.85 21.8-2.3L21.8-2.3Q19.65-7.8 16.53-13.03 13.4-18.25 10-22.05L10-22.05Q9.45-22.55 9.1-22.55L9.1-22.55Q8.6-22.55 8.45-21.45L8.45-21.45Q8.2-19.55 7.95-17.3 7.7-15.05 7.55-12.93 7.4-10.8 7.4-9.3L7.4-9.3Q7.4-7.6 7.7-6.38 8-5.15 8.6-4L8.6-4Q9.15-3 9.15-2.2L9.15-2.2Q9.15-1.25 8.05-0.38 6.95 0.5 4.95 0.5Z" opacity="1" transform="matrix(1,0,0,1,0,0)" fill="black" class="wordmark-text-0" id="SvgjsPath2862" stroke-width="7" stroke="black" stroke-linejoin="round">
                                                                                        </path>
                                                                                    </svg>
                                                                                </g>
                                                                            </svg>
                                                                        </g>
                                                                    </svg>
                                                                </g>
                                                            </svg>
                                                        </g>
                                                    </svg>
                                                </g>
                                            </svg>
                                        </g>
                                    </svg>
                                </g>
                            </mask>
                            <g transform="matrix(1,0,0,1,121.59188916876575,37.08)">
                                <svg viewBox="0 0 152.3362216624685 173.04" height="173.04" width="152.3362216624685">
                                    <g>
                                        <svg viewBox="0 0 152.3362216624685 173.04" height="173.04" width="152.3362216624685">
                                            <g>
                                                <svg viewBox="0 0 152.3362216624685 173.04" height="173.04" width="152.3362216624685">
                                                    <g>
                                                        <svg viewBox="0 0 152.3362216624685 173.04" height="173.04" width="152.3362216624685">
                                                            <g id="textblocktransform">
                                                                <svg viewBox="0 0 152.3362216624685 173.04" height="173.04" width="152.3362216624685" id="textblock">
                                                                    <g>
                                                                        <svg viewBox="0 0 152.3362216624685 173.04" height="173.04" width="152.3362216624685">
                                                                            <g transform="matrix(1,0,0,1,0,0)">
                                                                                <svg width="152.3362216624685" viewBox="-1.7000000000000002 -36.2 35.95 40.7" height="173.04" data-palette-color="#ff5a00">
                                                                                    <path d="M4.95 0.5L4.95 0.5Q3.85 0.5 3.08-0.08 2.3-0.65 2.3-2.8L2.3-2.8Q2.3-3.9 2.53-5.48 2.75-7.05 3-8.75L3-8.75Q3.4-11.15 3.8-14.03 4.2-16.9 4.2-19.75L4.2-19.75Q4.2-22.75 4-24.35 3.8-25.95 3.55-26.95L3.55-26.95Q3.45-27.5 3.38-27.95 3.3-28.4 3.3-28.95L3.3-28.95Q3.3-30.55 4.33-31.38 5.35-32.2 6.6-32.2L6.6-32.2Q7.85-32.2 8.7-31.58 9.55-30.95 10.2-30.25L10.2-30.25Q14.5-25.4 17.95-20.08 21.4-14.75 23.7-9.15L23.7-9.15Q23.95-8.75 24.15-8.75L24.15-8.75Q24.45-8.75 24.55-9.15L24.55-9.15Q25.45-15 25.45-19.75L25.45-19.75Q25.45-22.6 25.23-24.28 25-25.95 24.68-26.88 24.35-27.8 24.05-28.35L24.05-28.35Q23.9-28.7 23.8-28.98 23.7-29.25 23.7-29.5L23.7-29.5Q23.7-30.1 24.33-30.73 24.95-31.35 25.85-31.75 26.75-32.15 27.6-32.15L27.6-32.15Q28.8-32.15 29.35-31.35 29.9-30.55 30.08-29.38 30.25-28.2 30.25-27L30.25-27Q30.25-25.65 30-23.5 29.75-21.35 29.43-18.88 29.1-16.4 28.88-14 28.65-11.6 28.65-9.75L28.65-9.75Q28.65-8.7 28.73-7.7 28.8-6.7 28.9-5.75L28.9-5.75Q29.05-4.5 29.05-3.55L29.05-3.55Q29.05-1.7 28.13-0.63 27.2 0.45 25.6 0.45L25.6 0.45Q24.5 0.45 23.43-0.2 22.35-0.85 21.8-2.3L21.8-2.3Q19.65-7.8 16.53-13.03 13.4-18.25 10-22.05L10-22.05Q9.45-22.55 9.1-22.55L9.1-22.55Q8.6-22.55 8.45-21.45L8.45-21.45Q8.2-19.55 7.95-17.3 7.7-15.05 7.55-12.93 7.4-10.8 7.4-9.3L7.4-9.3Q7.4-7.6 7.7-6.38 8-5.15 8.6-4L8.6-4Q9.15-3 9.15-2.2L9.15-2.2Q9.15-1.25 8.05-0.38 6.95 0.5 4.95 0.5Z" opacity="1" transform="matrix(1,0,0,1,0,0)" fill="#ff5a00" class="wordmark-text-0" data-fill-palette-color="primary" id="text-0">
                                                                                    </path>
                                                                                </svg>
                                                                            </g>
                                                                        </svg>
                                                                    </g>
                                                                </svg>
                                                            </g>
                                                        </svg>
                                                    </g>
                                                </svg>
                                            </g>
                                        </svg>
                                    </g>
                                </svg>
                            </g>
                            <g mask="url(#dbd2d156-2174-44fb-ba5a-6351023afdc0)">
                                <g transform="matrix(10.660869565217391, 0, 0, 10.660869565217391, 75.16, 1)">
                                    <svg xmlns="http://www.w3.org/2000/svg" xmlns:xlink="http://www.w3.org/1999/xlink" version="1.1" x="0" y="0" viewBox="0.5 0.5 23 23" style="enable-background:new 0 0 24 24;" xml:space="preserve" height="23" width="23" class="icon-none" data-fill-palette-color="accent" id="none">
                                        <path d="M12 0.5C5.659 0.5 0.5 5.659 0.5 12S5.659 23.5 12 23.5 23.5 18.341 23.5 12 18.341 0.5 12 0.5M17.854 17.854C17.358 18.349 16.7 18.622 16 18.622S14.642 18.349 14.146 17.854L10.5 14.207V15C10.5 16.378 9.378 17.5 8 17.5S5.5 16.378 5.5 15V7C5.5 6.173 6.173 5.5 7 5.5H15C16.378 5.5 17.5 6.622 17.5 8S16.378 10.5 15 10.5H14.207L17.853 14.146C18.348 14.641 18.621 15.299 18.621 16S18.349 17.358 17.854 17.854" fill="#ff5a00" data-fill-palette-color="accent">
                                        </path>
                                    </svg>
                                </g>
                            </g>
                        </svg>
                    </g>
                    <defs>
                    </defs>
                </svg>
                <rect width="395.52" height="247.2" fill="none" stroke="none" visibility="hidden">
                </rect>
            </g>
        </svg>
    </g>
</svg>