<svg xmlns="http://www.w3.org/2000/svg" version="1.1" xmlns:xlink="http://www.w3.org/1999/xlink" xmlns:svgjs="http://svgjs.dev/svgjs" width="1500" height="946" viewBox="0 0 1500 946"><g transform="matrix(1,0,0,1,-0.9090909090909918,-1.5844634430604856)"><svg viewBox="0 0 396 250" data-background-color="#f9f7f4" preserveAspectRatio="xMidYMid meet" height="946" width="1500" xmlns="http://www.w3.org/2000/svg" xmlns:xlink="http://www.w3.org/1999/xlink"><g id="tight-bounds" transform="matrix(1,0,0,1,0.2400000000000091,1.5366219913677526)"><svg viewBox="0 0 395.52 247.2" height="247.2" width="395.52"><g><svg></svg></g><g><svg viewBox="0 0 395.52 247.2" height="247.2" width="395.52"><mask id="85de05aa-2916-4179-b747-78d75775499c"><rect width="640" height="400" fill="white"></rect><g transform="matrix(1,0,0,1,96.69388049508015,37.08)"><svg viewBox="0 0 202.13223900983968 173.04" height="173.04" width="202.13223900983968"><g><svg viewBox="0 0 202.13223900983968 173.04" height="173.04" width="202.13223900983968"><g><svg viewBox="0 0 316.416 270.8752691218874" height="173.04" width="202.13223900983968"><g><svg viewBox="0 0 316.416 270.8752691218874" height="270.8752691218874" width="316.416"><g id="SvgjsG1637"><svg viewBox="0 0 316.416 270.8752691218874" height="270.8752691218874" width="316.416" id="SvgjsSvg1636"><g><svg viewBox="0 0 316.416 157.5610795093139" height="157.5610795093139" width="316.416"><g transform="matrix(1,0,0,1,0,0)"><svg width="316.416" viewBox="-1.7000000000000002 -38 111.04 55.8" height="157.5610795093139" data-palette-color="#ff5a00"><path d="M4.95 0.5L4.95 0.5Q3.85 0.5 3.08-0.08 2.3-0.65 2.3-2.8L2.3-2.8Q2.3-3.9 2.53-5.48 2.75-7.05 3-8.75L3-8.75Q3.4-11.15 3.8-14.03 4.2-16.9 4.2-19.75L4.2-19.75Q4.2-22.75 4-24.35 3.8-25.95 3.55-26.95L3.55-26.95Q3.45-27.5 3.38-27.95 3.3-28.4 3.3-28.95L3.3-28.95Q3.3-30.55 4.33-31.38 5.35-32.2 6.6-32.2L6.6-32.2Q7.85-32.2 8.7-31.58 9.55-30.95 10.2-30.25L10.2-30.25Q14.5-25.4 17.95-20.08 21.4-14.75 23.7-9.15L23.7-9.15Q23.95-8.75 24.15-8.75L24.15-8.75Q24.45-8.75 24.55-9.15L24.55-9.15Q25.45-15 25.45-19.75L25.45-19.75Q25.45-22.6 25.23-24.28 25-25.95 24.68-26.88 24.35-27.8 24.05-28.35L24.05-28.35Q23.9-28.7 23.8-28.98 23.7-29.25 23.7-29.5L23.7-29.5Q23.7-30.1 24.33-30.73 24.95-31.35 25.85-31.75 26.75-32.15 27.6-32.15L27.6-32.15Q28.8-32.15 29.35-31.35 29.9-30.55 30.08-29.38 30.25-28.2 30.25-27L30.25-27Q30.25-25.65 30-23.5 29.75-21.35 29.43-18.88 29.1-16.4 28.88-14 28.65-11.6 28.65-9.75L28.65-9.75Q28.65-8.7 28.73-7.7 28.8-6.7 28.9-5.75L28.9-5.75Q29.05-4.5 29.05-3.55L29.05-3.55Q29.05-1.7 28.13-0.63 27.2 0.45 25.6 0.45L25.6 0.45Q24.5 0.45 23.43-0.2 22.35-0.85 21.8-2.3L21.8-2.3Q19.65-7.8 16.53-13.03 13.4-18.25 10-22.05L10-22.05Q9.45-22.55 9.1-22.55L9.1-22.55Q8.6-22.55 8.45-21.45L8.45-21.45Q8.2-19.55 7.95-17.3 7.7-15.05 7.55-12.93 7.4-10.8 7.4-9.3L7.4-9.3Q7.4-7.6 7.7-6.38 8-5.15 8.6-4L8.6-4Q9.15-3 9.15-2.2L9.15-2.2Q9.15-1.25 8.05-0.38 6.95 0.5 4.95 0.5ZM40.5 0.65L40.5 0.65Q37.5 0.65 35.67-1.23 33.85-3.1 33.85-6.6L33.85-6.6Q33.85-9.1 34.82-11.58 35.8-14.05 37.65-16.05 39.5-18.05 42.1-19.25 44.7-20.45 47.95-20.45L47.95-20.45Q50.95-20.45 53.07-19.43 55.2-18.4 55.2-16.65L55.2-16.65Q55.2-16.2 55.1-15.48 55-14.75 54.85-14.3L54.85-14.3Q54.7-13.9 54.42-13.58 54.15-13.25 53.7-13.25L53.7-13.25Q53.5-13.25 52.95-13.4L52.95-13.4Q52.75-12.35 52.65-11.35 52.55-10.35 52.55-9.35L52.55-9.35Q52.55-7.45 53.12-5.98 53.7-4.5 55.4-4.15L55.4-4.15Q55.85-4.05 56.12-3.85 56.4-3.65 56.4-3L56.4-3Q56.4-2.45 56.12-1.6 55.85-0.75 55.07-0.08 54.3 0.6 52.85 0.6L52.85 0.6Q50.9 0.6 49.85-0.83 48.8-2.25 48.8-4.9L48.8-4.9Q47.45-2.45 45.37-0.9 43.3 0.65 40.5 0.65ZM42.1-4.55L42.1-4.55Q44.1-4.55 45.62-5.8 47.15-7.05 48-8.95L48-8.95Q48.55-10.15 48.85-11.58 49.15-13 49.25-14.4L49.25-14.4Q48.4-14.8 47.3-15.05 46.2-15.3 45-15.3L45-15.3Q41.95-15.3 39.97-13.5 38-11.7 38-9L38-9Q38-7 39.1-5.78 40.2-4.55 42.1-4.55ZM63.25-24.85L63.25-24.85Q61.85-24.9 61-25.7 60.15-26.5 60.2-27.95L60.2-27.95Q60.25-29.5 61.25-30.48 62.25-31.45 63.8-31.4L63.8-31.4Q65.25-31.35 66.05-30.55 66.84-29.75 66.8-28.3L66.8-28.3Q66.75-26.8 65.8-25.83 64.84-24.85 63.25-24.85ZM55.8 13.8L55.8 13.8Q53.85 13.8 52.42 12.75 51 11.7 51 9.8L51 9.8Q51 8.3 51.77 7.45 52.55 6.6 53.4 6.6L53.4 6.6Q54 6.6 54.55 7.1L54.55 7.1Q55 7.55 55.57 7.8 56.15 8.05 57 8.05L57 8.05Q58.85 8.05 59.72 6.83 60.6 5.6 60.95 3.7L60.95 3.7Q61.6 0.5 61.75-2.3 61.9-5.1 61.9-8.25L61.9-8.25Q61.9-11.4 61.67-13.08 61.45-14.75 60.3-15.3L60.3-15.3Q59.55-15.7 59.2-16 58.85-16.3 58.85-16.8L58.85-16.8Q58.85-17.55 59.52-18.35 60.2-19.15 61.3-19.7 62.4-20.25 63.65-20.25L63.65-20.25Q65.09-20.25 65.72-19.5 66.34-18.75 66.52-17.6 66.7-16.45 66.65-15.15L66.65-15.15Q66.59-9.8 66.12-4.98 65.65-0.15 64.34 4.1L64.34 4.1Q63.05 8.65 60.97 11.23 58.9 13.8 55.8 13.8ZM75.99-24.85L75.99-24.85Q74.59-24.9 73.74-25.7 72.89-26.5 72.89-27.95L72.89-27.95Q72.94-29.5 73.94-30.48 74.94-31.45 76.49-31.4L76.49-31.4Q77.94-31.35 78.77-30.55 79.59-29.75 79.54-28.3L79.54-28.3Q79.49-26.8 78.54-25.83 77.59-24.85 75.99-24.85ZM76.04 0.5L76.04 0.5Q74.54 0.5 73.69-0.33 72.84-1.15 72.84-3.15L72.84-3.15Q72.84-4.3 73.07-5.4 73.29-6.5 73.59-7.55L73.59-7.55Q73.94-8.65 74.17-9.8 74.39-10.95 74.39-12.25L74.39-12.25Q74.39-13.15 74.14-13.98 73.89-14.8 73.04-15.2L73.04-15.2Q72.39-15.55 71.92-15.93 71.44-16.3 71.44-16.9L71.44-16.9Q71.44-17.6 72.09-18.4 72.74-19.2 73.82-19.78 74.89-20.35 76.04-20.35L76.04-20.35Q77.29-20.35 77.87-19.7 78.44-19.05 78.64-18.05 78.84-17.05 78.84-16L78.84-16Q78.84-14.4 78.59-12.88 78.34-11.35 78.09-10.05L78.09-10.05Q77.89-9.1 77.79-8.3 77.69-7.5 77.69-6.8L77.69-6.8Q77.69-5.55 78.29-4.93 78.89-4.3 79.99-3.75L79.99-3.75Q80.44-3.5 80.44-3L80.44-3Q80.44-2.6 80.04-1.75 79.64-0.9 78.67-0.2 77.69 0.5 76.04 0.5ZM94.29 0.65L94.29 0.65Q92.44 0.65 91.12 0 89.79-0.65 88.79-1.65L88.79-1.65Q88.29-0.8 87.62-0.13 86.94 0.55 86.09 0.55L86.09 0.55Q85.54 0.55 85.04 0.23 84.54-0.1 84.64-0.65L84.64-0.65Q85.39-4.65 85.92-8.75 86.44-12.85 86.44-17.1L86.44-17.1Q86.44-20.65 86.19-23.75 85.94-26.85 84.64-29.45L84.64-29.45Q84.39-29.95 84.22-30.4 84.04-30.85 84.04-31.25L84.04-31.25Q84.04-32.2 85.14-33.1 86.24-34 87.49-34L87.49-34Q89.29-34 89.94-31.8 90.59-29.6 90.59-25.3L90.59-25.3Q90.59-21.65 90.27-18.63 89.94-15.6 89.54-13.45L89.54-13.45Q90.94-16.4 93.37-18.43 95.79-20.45 98.84-20.45L98.84-20.45Q101.89-20.45 103.62-18.43 105.34-16.4 105.34-12.95L105.34-12.95Q105.34-10.4 104.54-7.98 103.74-5.55 102.29-3.6 100.84-1.65 98.82-0.5 96.79 0.65 94.29 0.65ZM95.44-4.75L95.44-4.75Q98.29-4.75 99.84-6.55 101.39-8.35 101.39-10.7L101.39-10.7Q101.39-12.75 100.27-13.88 99.14-15 97.29-15L97.29-15Q95.44-15 93.99-13.88 92.54-12.75 91.54-10.93 90.54-9.1 89.99-7L89.99-7Q91.14-5.9 92.57-5.33 93.99-4.75 95.44-4.75Z" opacity="1" transform="matrix(1,0,0,1,0,0)" fill="black" class="wordmark-text-0" id="SvgjsPath1635" stroke-width="7" stroke="black" stroke-linejoin="round"></path></svg></g></svg></g><g transform="matrix(1,0,0,1,3.5,190.00610530526848)"><svg viewBox="0 0 309.416 80.86916381661896" height="80.86916381661896" width="309.416"><g transform="matrix(1,0,0,1,0,0)"><svg width="309.416" viewBox="0.6900000000000004 -39.6 204.7 54.24000000000001" height="80.86916381661896" data-palette-color="#ff5a00"><path d="M13.23 0L4.69 0 4.69-33.84 13.04-33.84Q20.85-33.84 24.9-29.44 28.96-25.05 28.96-17.04L28.96-17.04Q28.96-9.01 24.93-4.5 20.9 0 13.23 0L13.23 0ZM8.69-30.54L8.69-3.3 12.72-3.3Q18.77-3.3 21.78-6.95 24.78-10.6 24.78-17.04L24.78-17.04Q24.78-23.46 21.78-27 18.77-30.54 12.72-30.54L12.72-30.54 8.69-30.54ZM45.95 0.61L45.95 0.61Q42.65 0.61 39.95-0.95 37.26-2.51 35.66-5.44 34.06-8.37 34.06-12.45L34.06-12.45Q34.06-16.53 35.66-19.48 37.26-22.44 39.82-24.02 42.38-25.61 45.24-25.61L45.24-25.61Q49.95-25.61 52.54-22.46 55.13-19.31 55.13-13.89L55.13-13.89Q55.13-12.52 54.98-11.57L54.98-11.57 37.96-11.57Q38.16-7.5 40.45-5 42.75-2.51 46.41-2.51L46.41-2.51Q48.29-2.51 49.85-3.02 51.42-3.52 52.76-4.42L52.76-4.42 54.15-1.95Q52.51-0.83 50.54-0.11 48.56 0.61 45.95 0.61ZM37.92-14.43L37.92-14.43 51.64-14.43Q51.64-18.36 49.98-20.41 48.32-22.46 45.29-22.46L45.29-22.46Q42.58-22.46 40.44-20.36 38.31-18.26 37.92-14.43ZM71.34 0L66.75 0 57.69-24.98 61.77-24.98 66.65-10.6Q67.21-8.74 67.8-6.88 68.38-5.03 68.97-3.22L68.97-3.22 69.19-3.22Q69.75-5.03 70.36-6.88 70.97-8.74 71.51-10.6L71.51-10.6 76.39-24.98 80.25-24.98 71.34 0ZM89.11 0L85.16 0 85.16-24.98 88.45-24.98 88.82-21.39 88.92-21.39Q90.72-23.17 92.75-24.39 94.78-25.61 97.36-25.61L97.36-25.61Q101.27-25.61 103.1-23.13 104.93-20.65 104.93-15.87L104.93-15.87 104.93 0 101.03 0 101.03-15.36Q101.03-18.92 99.88-20.56 98.73-22.19 96.12-22.19L96.12-22.19Q94.19-22.19 92.63-21.17 91.06-20.14 89.11-18.19L89.11-18.19 89.11 0ZM117.14 0L113.18 0 113.18-24.98 117.14-24.98 117.14 0ZM115.23-30.25L115.23-30.25Q114.04-30.25 113.31-30.99 112.57-31.74 112.57-32.98L112.57-32.98Q112.57-34.13 113.31-34.86 114.04-35.6 115.23-35.6L115.23-35.6Q116.43-35.6 117.16-34.86 117.9-34.13 117.9-32.98L117.9-32.98Q117.9-31.74 117.16-30.99 116.43-30.25 115.23-30.25ZM145.7 10.64L141.72 10.64 141.72 1.64 141.87-2.93Q140.38-1.46 138.42-0.43 136.45 0.61 134.25 0.61L134.25 0.61Q129.59 0.61 126.77-2.8 123.95-6.2 123.95-12.45L123.95-12.45Q123.95-16.5 125.48-19.46 127-22.41 129.48-24.01 131.96-25.61 134.81-25.61L134.81-25.61Q136.99-25.61 138.66-24.84 140.33-24.07 141.99-22.61L141.99-22.61 142.14-22.61 142.5-24.98 145.7-24.98 145.7 10.64ZM135.13-2.71L135.13-2.71Q136.91-2.71 138.5-3.58 140.09-4.44 141.72-6.23L141.72-6.23 141.72-19.58Q140.06-21.04 138.55-21.68 137.04-22.31 135.45-22.31L135.45-22.31Q133.37-22.31 131.7-21.07 130.03-19.82 129.03-17.6 128.03-15.38 128.03-12.45L128.03-12.45Q128.03-7.89 129.88-5.3 131.74-2.71 135.13-2.71ZM161.55 0.61L161.55 0.61Q157.62 0.61 155.77-1.86 153.93-4.32 153.93-9.11L153.93-9.11 153.93-24.98 157.84-24.98 157.84-9.62Q157.84-6.08 159-4.46 160.16-2.83 162.74-2.83L162.74-2.83Q164.7-2.83 166.25-3.85 167.8-4.86 169.65-7.15L169.65-7.15 169.65-24.98 173.56-24.98 173.56 0 170.31 0 169.97-3.96 169.8-3.96Q168.07-1.9 166.09-0.65 164.11 0.61 161.55 0.61ZM192.21 0.61L192.21 0.61Q188.92 0.61 186.22-0.95 183.52-2.51 181.92-5.44 180.32-8.37 180.32-12.45L180.32-12.45Q180.32-16.53 181.92-19.48 183.52-22.44 186.08-24.02 188.65-25.61 191.5-25.61L191.5-25.61Q196.22-25.61 198.8-22.46 201.39-19.31 201.39-13.89L201.39-13.89Q201.39-12.52 201.25-11.57L201.25-11.57 184.23-11.57Q184.42-7.5 186.72-5 189.01-2.51 192.68-2.51L192.68-2.51Q194.56-2.51 196.12-3.02 197.68-3.52 199.02-4.42L199.02-4.42 200.42-1.95Q198.78-0.83 196.8-0.11 194.82 0.61 192.21 0.61ZM184.18-14.43L184.18-14.43 197.9-14.43Q197.9-18.36 196.24-20.41 194.58-22.46 191.55-22.46L191.55-22.46Q188.84-22.46 186.71-20.36 184.57-18.26 184.18-14.43Z" opacity="1" transform="matrix(1,0,0,1,0,0)" fill="black" class="slogan-text-1" id="SvgjsPath1634" stroke-width="7" stroke="black" stroke-linejoin="round"></path></svg></g></svg></g></svg></g></svg></g></svg></g></svg></g></svg></g></mask><g transform="matrix(1,0,0,1,96.69388049508015,37.08)"><svg viewBox="0 0 202.13223900983968 173.04" height="173.04" width="202.13223900983968"><g><svg viewBox="0 0 202.13223900983968 173.04" height="173.04" width="202.13223900983968"><g><svg viewBox="0 0 316.416 270.8752691218874" height="173.04" width="202.13223900983968"><g><svg viewBox="0 0 316.416 270.8752691218874" height="270.8752691218874" width="316.416"><g id="textblocktransform"><svg viewBox="0 0 316.416 270.8752691218874" height="270.8752691218874" width="316.416" id="textblock"><g><svg viewBox="0 0 316.416 157.5610795093139" height="157.5610795093139" width="316.416"><g transform="matrix(1,0,0,1,0,0)"><svg width="316.416" viewBox="-1.7000000000000002 -38 111.04 55.8" height="157.5610795093139" data-palette-color="#ff5a00"><path d="M4.95 0.5L4.95 0.5Q3.85 0.5 3.08-0.08 2.3-0.65 2.3-2.8L2.3-2.8Q2.3-3.9 2.53-5.48 2.75-7.05 3-8.75L3-8.75Q3.4-11.15 3.8-14.03 4.2-16.9 4.2-19.75L4.2-19.75Q4.2-22.75 4-24.35 3.8-25.95 3.55-26.95L3.55-26.95Q3.45-27.5 3.38-27.95 3.3-28.4 3.3-28.95L3.3-28.95Q3.3-30.55 4.33-31.38 5.35-32.2 6.6-32.2L6.6-32.2Q7.85-32.2 8.7-31.58 9.55-30.95 10.2-30.25L10.2-30.25Q14.5-25.4 17.95-20.08 21.4-14.75 23.7-9.15L23.7-9.15Q23.95-8.75 24.15-8.75L24.15-8.75Q24.45-8.75 24.55-9.15L24.55-9.15Q25.45-15 25.45-19.75L25.45-19.75Q25.45-22.6 25.23-24.28 25-25.95 24.68-26.88 24.35-27.8 24.05-28.35L24.05-28.35Q23.9-28.7 23.8-28.98 23.7-29.25 23.7-29.5L23.7-29.5Q23.7-30.1 24.33-30.73 24.95-31.35 25.85-31.75 26.75-32.15 27.6-32.15L27.6-32.15Q28.8-32.15 29.35-31.35 29.9-30.55 30.08-29.38 30.25-28.2 30.25-27L30.25-27Q30.25-25.65 30-23.5 29.75-21.35 29.43-18.88 29.1-16.4 28.88-14 28.65-11.6 28.65-9.75L28.65-9.75Q28.65-8.7 28.73-7.7 28.8-6.7 28.9-5.75L28.9-5.75Q29.05-4.5 29.05-3.55L29.05-3.55Q29.05-1.7 28.13-0.63 27.2 0.45 25.6 0.45L25.6 0.45Q24.5 0.45 23.43-0.2 22.35-0.85 21.8-2.3L21.8-2.3Q19.65-7.8 16.53-13.03 13.4-18.25 10-22.05L10-22.05Q9.45-22.55 9.1-22.55L9.1-22.55Q8.6-22.55 8.45-21.45L8.45-21.45Q8.2-19.55 7.95-17.3 7.7-15.05 7.55-12.93 7.4-10.8 7.4-9.3L7.4-9.3Q7.4-7.6 7.7-6.38 8-5.15 8.6-4L8.6-4Q9.15-3 9.15-2.2L9.15-2.2Q9.15-1.25 8.05-0.38 6.95 0.5 4.95 0.5ZM40.5 0.65L40.5 0.65Q37.5 0.65 35.67-1.23 33.85-3.1 33.85-6.6L33.85-6.6Q33.85-9.1 34.82-11.58 35.8-14.05 37.65-16.05 39.5-18.05 42.1-19.25 44.7-20.45 47.95-20.45L47.95-20.45Q50.95-20.45 53.07-19.43 55.2-18.4 55.2-16.65L55.2-16.65Q55.2-16.2 55.1-15.48 55-14.75 54.85-14.3L54.85-14.3Q54.7-13.9 54.42-13.58 54.15-13.25 53.7-13.25L53.7-13.25Q53.5-13.25 52.95-13.4L52.95-13.4Q52.75-12.35 52.65-11.35 52.55-10.35 52.55-9.35L52.55-9.35Q52.55-7.45 53.12-5.98 53.7-4.5 55.4-4.15L55.4-4.15Q55.85-4.05 56.12-3.85 56.4-3.65 56.4-3L56.4-3Q56.4-2.45 56.12-1.6 55.85-0.75 55.07-0.08 54.3 0.6 52.85 0.6L52.85 0.6Q50.9 0.6 49.85-0.83 48.8-2.25 48.8-4.9L48.8-4.9Q47.45-2.45 45.37-0.9 43.3 0.65 40.5 0.65ZM42.1-4.55L42.1-4.55Q44.1-4.55 45.62-5.8 47.15-7.05 48-8.95L48-8.95Q48.55-10.15 48.85-11.58 49.15-13 49.25-14.4L49.25-14.4Q48.4-14.8 47.3-15.05 46.2-15.3 45-15.3L45-15.3Q41.95-15.3 39.97-13.5 38-11.7 38-9L38-9Q38-7 39.1-5.78 40.2-4.55 42.1-4.55ZM63.25-24.85L63.25-24.85Q61.85-24.9 61-25.7 60.15-26.5 60.2-27.95L60.2-27.95Q60.25-29.5 61.25-30.48 62.25-31.45 63.8-31.4L63.8-31.4Q65.25-31.35 66.05-30.55 66.84-29.75 66.8-28.3L66.8-28.3Q66.75-26.8 65.8-25.83 64.84-24.85 63.25-24.85ZM55.8 13.8L55.8 13.8Q53.85 13.8 52.42 12.75 51 11.7 51 9.8L51 9.8Q51 8.3 51.77 7.45 52.55 6.6 53.4 6.6L53.4 6.6Q54 6.6 54.55 7.1L54.55 7.1Q55 7.55 55.57 7.8 56.15 8.05 57 8.05L57 8.05Q58.85 8.05 59.72 6.83 60.6 5.6 60.95 3.7L60.95 3.7Q61.6 0.5 61.75-2.3 61.9-5.1 61.9-8.25L61.9-8.25Q61.9-11.4 61.67-13.08 61.45-14.75 60.3-15.3L60.3-15.3Q59.55-15.7 59.2-16 58.85-16.3 58.85-16.8L58.85-16.8Q58.85-17.55 59.52-18.35 60.2-19.15 61.3-19.7 62.4-20.25 63.65-20.25L63.65-20.25Q65.09-20.25 65.72-19.5 66.34-18.75 66.52-17.6 66.7-16.45 66.65-15.15L66.65-15.15Q66.59-9.8 66.12-4.98 65.65-0.15 64.34 4.1L64.34 4.1Q63.05 8.65 60.97 11.23 58.9 13.8 55.8 13.8ZM75.99-24.85L75.99-24.85Q74.59-24.9 73.74-25.7 72.89-26.5 72.89-27.95L72.89-27.95Q72.94-29.5 73.94-30.48 74.94-31.45 76.49-31.4L76.49-31.4Q77.94-31.35 78.77-30.55 79.59-29.75 79.54-28.3L79.54-28.3Q79.49-26.8 78.54-25.83 77.59-24.85 75.99-24.85ZM76.04 0.5L76.04 0.5Q74.54 0.5 73.69-0.33 72.84-1.15 72.84-3.15L72.84-3.15Q72.84-4.3 73.07-5.4 73.29-6.5 73.59-7.55L73.59-7.55Q73.94-8.65 74.17-9.8 74.39-10.95 74.39-12.25L74.39-12.25Q74.39-13.15 74.14-13.98 73.89-14.8 73.04-15.2L73.04-15.2Q72.39-15.55 71.92-15.93 71.44-16.3 71.44-16.9L71.44-16.9Q71.44-17.6 72.09-18.4 72.74-19.2 73.82-19.78 74.89-20.35 76.04-20.35L76.04-20.35Q77.29-20.35 77.87-19.7 78.44-19.05 78.64-18.05 78.84-17.05 78.84-16L78.84-16Q78.84-14.4 78.59-12.88 78.34-11.35 78.09-10.05L78.09-10.05Q77.89-9.1 77.79-8.3 77.69-7.5 77.69-6.8L77.69-6.8Q77.69-5.55 78.29-4.93 78.89-4.3 79.99-3.75L79.99-3.75Q80.44-3.5 80.44-3L80.44-3Q80.44-2.6 80.04-1.75 79.64-0.9 78.67-0.2 77.69 0.5 76.04 0.5ZM94.29 0.65L94.29 0.65Q92.44 0.65 91.12 0 89.79-0.65 88.79-1.65L88.79-1.65Q88.29-0.8 87.62-0.13 86.94 0.55 86.09 0.55L86.09 0.55Q85.54 0.55 85.04 0.23 84.54-0.1 84.64-0.65L84.64-0.65Q85.39-4.65 85.92-8.75 86.44-12.85 86.44-17.1L86.44-17.1Q86.44-20.65 86.19-23.75 85.94-26.85 84.64-29.45L84.64-29.45Q84.39-29.95 84.22-30.4 84.04-30.85 84.04-31.25L84.04-31.25Q84.04-32.2 85.14-33.1 86.24-34 87.49-34L87.49-34Q89.29-34 89.94-31.8 90.59-29.6 90.59-25.3L90.59-25.3Q90.59-21.65 90.27-18.63 89.94-15.6 89.54-13.45L89.54-13.45Q90.94-16.4 93.37-18.43 95.79-20.45 98.84-20.45L98.84-20.45Q101.89-20.45 103.62-18.43 105.34-16.4 105.34-12.95L105.34-12.95Q105.34-10.4 104.54-7.98 103.74-5.55 102.29-3.6 100.84-1.65 98.82-0.5 96.79 0.65 94.29 0.65ZM95.44-4.75L95.44-4.75Q98.29-4.75 99.84-6.55 101.39-8.35 101.39-10.7L101.39-10.7Q101.39-12.75 100.27-13.88 99.14-15 97.29-15L97.29-15Q95.44-15 93.99-13.88 92.54-12.75 91.54-10.93 90.54-9.1 89.99-7L89.99-7Q91.14-5.9 92.57-5.33 93.99-4.75 95.44-4.75Z" opacity="1" transform="matrix(1,0,0,1,0,0)" fill="#ff5a00" class="wordmark-text-0" data-fill-palette-color="primary" id="text-0"></path></svg></g></svg></g><g transform="matrix(1,0,0,1,3.5,190.00610530526848)"><svg viewBox="0 0 309.416 80.86916381661896" height="80.86916381661896" width="309.416"><g transform="matrix(1,0,0,1,0,0)"><svg width="309.416" viewBox="0.6900000000000004 -39.6 204.7 54.24000000000001" height="80.86916381661896" data-palette-color="#ff5a00"><path d="M13.23 0L4.69 0 4.69-33.84 13.04-33.84Q20.85-33.84 24.9-29.44 28.96-25.05 28.96-17.04L28.96-17.04Q28.96-9.01 24.93-4.5 20.9 0 13.23 0L13.23 0ZM8.69-30.54L8.69-3.3 12.72-3.3Q18.77-3.3 21.78-6.95 24.78-10.6 24.78-17.04L24.78-17.04Q24.78-23.46 21.78-27 18.77-30.54 12.72-30.54L12.72-30.54 8.69-30.54ZM45.95 0.61L45.95 0.61Q42.65 0.61 39.95-0.95 37.26-2.51 35.66-5.44 34.06-8.37 34.06-12.45L34.06-12.45Q34.06-16.53 35.66-19.48 37.26-22.44 39.82-24.02 42.38-25.61 45.24-25.61L45.24-25.61Q49.95-25.61 52.54-22.46 55.13-19.31 55.13-13.89L55.13-13.89Q55.13-12.52 54.98-11.57L54.98-11.57 37.96-11.57Q38.16-7.5 40.45-5 42.75-2.51 46.41-2.51L46.41-2.51Q48.29-2.51 49.85-3.02 51.42-3.52 52.76-4.42L52.76-4.42 54.15-1.95Q52.51-0.83 50.54-0.11 48.56 0.61 45.95 0.61ZM37.92-14.43L37.92-14.43 51.64-14.43Q51.64-18.36 49.98-20.41 48.32-22.46 45.29-22.46L45.29-22.46Q42.58-22.46 40.44-20.36 38.31-18.26 37.92-14.43ZM71.34 0L66.75 0 57.69-24.98 61.77-24.98 66.65-10.6Q67.21-8.74 67.8-6.88 68.38-5.03 68.97-3.22L68.97-3.22 69.19-3.22Q69.75-5.03 70.36-6.88 70.97-8.74 71.51-10.6L71.51-10.6 76.39-24.98 80.25-24.98 71.34 0ZM89.11 0L85.16 0 85.16-24.98 88.45-24.98 88.82-21.39 88.92-21.39Q90.72-23.17 92.75-24.39 94.78-25.61 97.36-25.61L97.36-25.61Q101.27-25.61 103.1-23.13 104.93-20.65 104.93-15.87L104.93-15.87 104.93 0 101.03 0 101.03-15.36Q101.03-18.92 99.88-20.56 98.73-22.19 96.12-22.19L96.12-22.19Q94.19-22.19 92.63-21.17 91.06-20.14 89.11-18.19L89.11-18.19 89.11 0ZM117.14 0L113.18 0 113.18-24.98 117.14-24.98 117.14 0ZM115.23-30.25L115.23-30.25Q114.04-30.25 113.31-30.99 112.57-31.74 112.57-32.98L112.57-32.98Q112.57-34.13 113.31-34.86 114.04-35.6 115.23-35.6L115.23-35.6Q116.43-35.6 117.16-34.86 117.9-34.13 117.9-32.98L117.9-32.98Q117.9-31.74 117.16-30.99 116.43-30.25 115.23-30.25ZM145.7 10.64L141.72 10.64 141.72 1.64 141.87-2.93Q140.38-1.46 138.42-0.43 136.45 0.61 134.25 0.61L134.25 0.61Q129.59 0.61 126.77-2.8 123.95-6.2 123.95-12.45L123.95-12.45Q123.95-16.5 125.48-19.46 127-22.41 129.48-24.01 131.96-25.61 134.81-25.61L134.81-25.61Q136.99-25.61 138.66-24.84 140.33-24.07 141.99-22.61L141.99-22.61 142.14-22.61 142.5-24.98 145.7-24.98 145.7 10.64ZM135.13-2.71L135.13-2.71Q136.91-2.71 138.5-3.58 140.09-4.44 141.72-6.23L141.72-6.23 141.72-19.58Q140.06-21.04 138.55-21.68 137.04-22.31 135.45-22.31L135.45-22.31Q133.37-22.31 131.7-21.07 130.03-19.82 129.03-17.6 128.03-15.38 128.03-12.45L128.03-12.45Q128.03-7.89 129.88-5.3 131.74-2.71 135.13-2.71ZM161.55 0.61L161.55 0.61Q157.62 0.61 155.77-1.86 153.93-4.32 153.93-9.11L153.93-9.11 153.93-24.98 157.84-24.98 157.84-9.62Q157.84-6.08 159-4.46 160.16-2.83 162.74-2.83L162.74-2.83Q164.7-2.83 166.25-3.85 167.8-4.86 169.65-7.15L169.65-7.15 169.65-24.98 173.56-24.98 173.56 0 170.31 0 169.97-3.96 169.8-3.96Q168.07-1.9 166.09-0.65 164.11 0.61 161.55 0.61ZM192.21 0.61L192.21 0.61Q188.92 0.61 186.22-0.95 183.52-2.51 181.92-5.44 180.32-8.37 180.32-12.45L180.32-12.45Q180.32-16.53 181.92-19.48 183.52-22.44 186.08-24.02 188.65-25.61 191.5-25.61L191.5-25.61Q196.22-25.61 198.8-22.46 201.39-19.31 201.39-13.89L201.39-13.89Q201.39-12.52 201.25-11.57L201.25-11.57 184.23-11.57Q184.42-7.5 186.72-5 189.01-2.51 192.68-2.51L192.68-2.51Q194.56-2.51 196.12-3.02 197.68-3.52 199.02-4.42L199.02-4.42 200.42-1.95Q198.78-0.83 196.8-0.11 194.82 0.61 192.21 0.61ZM184.18-14.43L184.18-14.43 197.9-14.43Q197.9-18.36 196.24-20.41 194.58-22.46 191.55-22.46L191.55-22.46Q188.84-22.46 186.71-20.36 184.57-18.26 184.18-14.43Z" opacity="1" transform="matrix(1,0,0,1,0,0)" fill="#ff5a00" class="slogan-text-1" data-fill-palette-color="secondary" id="text-1"></path></svg></g></svg></g></svg></g></svg></g></svg></g></svg></g></svg></g><g mask="url(#85de05aa-2916-4179-b747-78d75775499c)"><g transform="matrix(4.378117961306823, 0, 0, 4.378117961306823, 75.17269708340895, 1)"><svg xmlns="http://www.w3.org/2000/svg" viewBox="4 3.9941997527151294 56 56.00580024728487" x="0" y="0" height="56.00580024728487" width="56" class="icon-none" data-fill-palette-color="accent" id="none"><g fill="#ff5a00" data-fill-palette-color="accent"><path d="M22.663 37.293A3.15 3.15 0 0 0 23.395 36.125 8.83 8.83 0 0 1 31.7 30.125H32.21A8.82 8.82 0 0 1 39.3 33.708 8.61 8.61 0 0 1 40.587 41.473 21.1 21.1 0 0 1 35.387 50.017L31.697 53.707 30.283 52.293 33.973 48.603A19.1 19.1 0 0 0 38.673 40.87 6.63 6.63 0 0 0 37.68 34.89 6.81 6.81 0 0 0 32.207 32.12H31.7A6.83 6.83 0 0 0 25.285 36.776 5 5 0 0 1 24.654 38H26.921C27.006 37.81 27.104 37.63 27.173 37.427A4.845 4.845 0 0 1 31.7 34.12H32.21A4.75 4.75 0 0 1 36.077 36.083 4.65 4.65 0 0 1 36.777 40.272 17.06 17.06 0 0 1 32.559 47.189L27.531 52.217 26.113 50.8 28.913 48H26.094L24.557 49.537 23.143 48.123 23.266 48H10V52H8V48H6V54H23.586A4.38 4.38 0 0 1 26.707 55.293 2.43 2.43 0 0 0 28.414 56H35.586A2.43 2.43 0 0 0 37.293 55.293 4.38 4.38 0 0 1 40.414 54H58V31H56V52H54V31H42.229C42.374 31.182 42.529 31.352 42.667 31.543A12.6 12.6 0 0 1 44.524 35.453 12.4 12.4 0 0 1 44.524 42.253L42.6 41.708A10.4 10.4 0 0 0 42.6 36 10.6 10.6 0 0 0 41.034 32.7 11.2 11.2 0 0 0 31.841 28.124H31.7A10.81 10.81 0 0 0 22.86 32.786L22.381 33.475 20.74 32.329 21.22 31.64A12.81 12.81 0 0 1 31.7 26.12H31.84A13.52 13.52 0 0 1 40 28.829V26.4A15.55 15.55 0 0 0 31.84 24.12H31.7A14.6 14.6 0 0 0 23.472 26.657L22.348 25A16.6 16.6 0 0 1 31.7 22.12H31.84A17.6 17.6 0 0 1 40 24.1V15A1 1 0 0 1 41 14H54V11A3 3 0 0 0 53.94 10.406 3 3 0 0 0 53.852 10.118C53.824 10.027 53.804 9.933 53.768 9.846A3 3 0 0 0 53.611 9.551C53.569 9.477 53.537 9.398 53.489 9.328 53.464 9.29 53.429 9.257 53.401 9.22A3 3 0 0 0 52.701 8.534L52.675 8.512A3 3 0 0 0 52.337 8.328C52.276 8.298 52.22 8.259 52.157 8.233A3 3 0 0 0 51.821 8.133C51.745 8.111 51.672 8.08 51.595 8.064A3 3 0 0 0 48 11 1 1 0 0 1 47 12H43A1 1 0 0 1 42 11 9 9 0 0 1 42.525 8H13A3 3 0 0 0 10 11V38H21.956ZM41.9 43.745L43.753 44.496A24.9 24.9 0 0 1 38.594 52.443L37.15 51.057A22.9 22.9 0 0 0 41.9 43.745M38.312 21.938A10.11 10.11 0 0 0 28.39 21.028 10 10 0 0 0 26.811 21.938L25.66 20.3A12 12 0 0 1 27.555 19.209 12.02 12.02 0 0 1 39.463 20.3ZM21 10H23V12H21ZM17 10H19V12H17ZM13 10H15V12H13ZM13 14H38V16H13Z" fill="#ff5a00" data-fill-palette-color="accent"></path><path d="M30 40H4V46H30ZM8 44H6V42H8ZM12 44H10V42H12ZM16 44H14V42H16ZM20 44H18V42H20Z" fill="#ff5a00" data-fill-palette-color="accent"></path><path d="M8 20.184A3 3 0 0 0 6 23V38H8Z" fill="#ff5a00" data-fill-palette-color="accent"></path><path d="M59 16H42V29H60V16ZM55 27H47A1 1 0 0 1 46 26 4.97 4.97 0 0 1 48.142 21.9 2.9 2.9 0 0 1 48 21 3 3 0 0 1 54 21 2.9 2.9 0 0 1 53.858 21.9 4.97 4.97 0 0 1 56 26 1 1 0 0 1 55 27" fill="#ff5a00" data-fill-palette-color="accent"></path><path d="M38.707 56.707A4.4 4.4 0 0 1 35.59 58H28.41A4.4 4.4 0 0 1 25.293 56.707 2.43 2.43 0 0 0 23.586 56H4V58A2 2 0 0 0 6 60H58A2 2 0 0 0 60 58V56H40.414A2.43 2.43 0 0 0 38.707 56.707" fill="#ff5a00" data-fill-palette-color="accent"></path><path d="M51 6A5 5 0 0 1 51.992 6.1C52.11 6.124 52.219 6.172 52.334 6.2A5 5 0 0 1 52.928 6.384C53.045 6.434 53.149 6.505 53.262 6.562A5 5 0 0 1 53.786 6.847C53.852 6.891 53.906 6.947 53.97 6.997A5 5 0 0 1 54.532 7.454 5 5 0 0 1 54.919 7.929C54.995 8.029 55.082 8.112 55.151 8.213 55.237 8.342 55.297 8.483 55.371 8.613A5 5 0 0 1 55.612 9.066 5 5 0 0 1 55.782 9.611C55.82 9.741 55.872 9.865 55.9 9.999A5 5 0 0 1 56 11V14H58V11A7 7 0 0 0 44.071 10H46.1A5.01 5.01 0 0 1 51 6" fill="#ff5a00" data-fill-palette-color="accent"></path><path d="M32 44.813A14.8 14.8 0 0 0 34.867 39.668 2.67 2.67 0 0 0 34.467 37.268 2.77 2.77 0 0 0 32.21 36.12H31.7A2.79 2.79 0 0 0 29.1 38H31A1 1 0 0 1 31.159 38.032C31.173 37.979 31.197 37.932 31.21 37.875L33.15 38.365A12.8 12.8 0 0 1 32 41.294Z" fill="#ff5a00" data-fill-palette-color="accent"></path><path d="M52.131 23.225A1 1 0 0 1 51.752 21.646 1 1 0 0 0 52 21 1 1 0 0 0 50 21 1 1 0 0 0 50.248 21.646 1 1 0 0 1 49.869 23.225 3 3 0 0 0 48.171 25H53.829A3 3 0 0 0 52.131 23.225" fill="#ff5a00" data-fill-palette-color="accent"></path></g></svg></g></g></svg></g><defs></defs></svg><rect width="395.52" height="247.2" fill="none" stroke="none" visibility="hidden"></rect></g></svg></g></svg>